<svg version="1.2" xmlns="http://www.w3.org/2000/svg" viewBox="0 0 88 88" width="75" height="75">
	<title>clock-svg</title>
	<style>
		.s0 { fill: #ffffff } 
	</style>
	<g id="clock-outline">
		<g id="Layer_2">
			<g id="clock">
				<path id="Path_7197" fill-rule="evenodd" class="s0" d="m60.6 3.3c5.3 2.2 10.1 5.5 14.2 9.5 4.1 4.1 7.3 8.9 9.5 14.3 2.2 5.3 3.3 11 3.3 16.7 0 17.7-10.6 33.7-27 40.5-16.4 6.8-35.2 3-47.8-9.5-12.5-12.5-16.2-31.4-9.5-47.7 6.8-16.4 22.8-27.1 40.5-27.1 5.8 0 11.5 1.1 16.8 3.3zm-3.4 72.9c4.3-1.8 8.2-4.3 11.4-7.6 3.3-3.2 5.8-7.1 7.6-11.4 1.8-4.2 2.7-8.8 2.7-13.4 0-14.2-8.6-26.9-21.7-32.4-13.1-5.4-28.1-2.4-38.2 7.6-10 10.1-13 25.1-7.6 38.2 5.5 13.1 18.2 21.7 32.4 21.7 4.6 0 9.2-0.9 13.4-2.7z"/>
				<path id="Path_7198" class="s0" d="m64.4 40.7c0.9 0.8 1.3 2 1.3 3.1 0 1.2-0.4 2.3-1.3 3.1-0.8 0.8-1.9 1.3-3 1.3h-17.6q-0.8 0-1.7-0.3-0.8-0.4-1.4-1-0.6-0.6-0.9-1.4-0.4-0.8-0.4-1.7v-17.5c0-1.2 0.5-2.3 1.3-3.1 0.8-0.8 2-1.3 3.1-1.3 1.2 0 2.3 0.5 3.1 1.3 0.8 0.8 1.3 1.9 1.3 3.1v13.1h13.2c1.1 0 2.2 0.5 3 1.3z"/>
			</g>
		</g>
	</g>
</svg>